<mxfile host="app.diagrams.net" modified="2021-06-17T03:03:31.685Z" agent="5.0 (Macintosh; Intel Mac OS X 10_14_5) AppleWebKit/537.36 (KHTML, like Gecko) Chrome/77.0.3865.90 Safari/537.36" etag="Slti0grdevTVoPfYjNHm" version="14.7.8" type="github">
  <diagram id="ZT_yV8qCvgmUuOjG69n4" name="Page-1">
    <mxGraphModel dx="1426" dy="794" grid="1" gridSize="10" guides="1" tooltips="1" connect="1" arrows="1" fold="1" page="1" pageScale="1" pageWidth="1654" pageHeight="2336" math="0" shadow="0">
      <root>
        <mxCell id="0" />
        <mxCell id="1" parent="0" />
        <mxCell id="gTwHU6XBFoAe-j7LGJRu-66" value="" style="rounded=0;whiteSpace=wrap;html=1;fillColor=#f5f5f5;strokeColor=#666666;fontColor=#333333;" parent="1" vertex="1">
          <mxGeometry x="1010" y="390" width="390" height="710" as="geometry" />
        </mxCell>
        <mxCell id="gTwHU6XBFoAe-j7LGJRu-25" value="" style="shape=ext;rounded=1;html=1;whiteSpace=wrap;dashed=1;dashPattern=1 4;" parent="1" vertex="1">
          <mxGeometry x="640" y="410" width="320" height="670" as="geometry" />
        </mxCell>
        <mxCell id="gTwHU6XBFoAe-j7LGJRu-1" value="省苏" style="shape=document;whiteSpace=wrap;html=1;boundedLbl=1;" parent="1" vertex="1">
          <mxGeometry x="190" y="190" width="120" height="80" as="geometry" />
        </mxCell>
        <mxCell id="gTwHU6XBFoAe-j7LGJRu-2" value="鑫义" style="shape=document;whiteSpace=wrap;html=1;boundedLbl=1;" parent="1" vertex="1">
          <mxGeometry x="190" y="280" width="120" height="80" as="geometry" />
        </mxCell>
        <mxCell id="gTwHU6XBFoAe-j7LGJRu-3" value="..." style="shape=document;whiteSpace=wrap;html=1;boundedLbl=1;" parent="1" vertex="1">
          <mxGeometry x="190" y="380" width="120" height="80" as="geometry" />
        </mxCell>
        <mxCell id="gTwHU6XBFoAe-j7LGJRu-4" value="Kong" style="rounded=1;whiteSpace=wrap;html=1;" parent="1" vertex="1">
          <mxGeometry x="350" y="190" width="50" height="260" as="geometry" />
        </mxCell>
        <mxCell id="gTwHU6XBFoAe-j7LGJRu-5" value="DB" style="strokeWidth=2;html=1;shape=mxgraph.flowchart.database;whiteSpace=wrap;" parent="1" vertex="1">
          <mxGeometry x="220" y="530" width="60" height="60" as="geometry" />
        </mxCell>
        <mxCell id="gTwHU6XBFoAe-j7LGJRu-6" value="Canal" style="rounded=1;whiteSpace=wrap;html=1;" parent="1" vertex="1">
          <mxGeometry x="350" y="470" width="50" height="120" as="geometry" />
        </mxCell>
        <mxCell id="gTwHU6XBFoAe-j7LGJRu-7" value="ETL" style="rounded=1;whiteSpace=wrap;html=1;" parent="1" vertex="1">
          <mxGeometry x="440" y="190" width="70" height="570" as="geometry" />
        </mxCell>
        <mxCell id="gTwHU6XBFoAe-j7LGJRu-8" value="Data&amp;nbsp; HighWay" style="rounded=1;whiteSpace=wrap;html=1;" parent="1" vertex="1">
          <mxGeometry x="640" y="310" width="760" height="60" as="geometry" />
        </mxCell>
        <mxCell id="gTwHU6XBFoAe-j7LGJRu-9" value="" style="verticalLabelPosition=bottom;verticalAlign=top;html=1;strokeWidth=2;shape=mxgraph.arrows2.arrow;dy=0.6;dx=40;notch=0;" parent="1" vertex="1">
          <mxGeometry x="530" y="305" width="100" height="70" as="geometry" />
        </mxCell>
        <mxCell id="gTwHU6XBFoAe-j7LGJRu-10" value="业务处理层" style="rounded=1;whiteSpace=wrap;html=1;" parent="1" vertex="1">
          <mxGeometry x="660" y="500" width="280" height="80" as="geometry" />
        </mxCell>
        <mxCell id="gTwHU6XBFoAe-j7LGJRu-11" value="" style="verticalLabelPosition=bottom;verticalAlign=top;html=1;strokeWidth=2;shape=mxgraph.arrows2.arrow;dy=0.6;dx=40;notch=0;rotation=90;" parent="1" vertex="1">
          <mxGeometry x="770" y="370" width="60" height="100" as="geometry" />
        </mxCell>
        <mxCell id="gTwHU6XBFoAe-j7LGJRu-12" value="" style="rounded=1;whiteSpace=wrap;html=1;" parent="1" vertex="1">
          <mxGeometry x="660" y="620" width="280" height="120" as="geometry" />
        </mxCell>
        <mxCell id="gTwHU6XBFoAe-j7LGJRu-13" value="MySQL" style="strokeWidth=2;html=1;shape=mxgraph.flowchart.database;whiteSpace=wrap;" parent="1" vertex="1">
          <mxGeometry x="680" y="650" width="60" height="60" as="geometry" />
        </mxCell>
        <mxCell id="gTwHU6XBFoAe-j7LGJRu-14" value="Redis" style="strokeWidth=2;html=1;shape=mxgraph.flowchart.database;whiteSpace=wrap;" parent="1" vertex="1">
          <mxGeometry x="760" y="650" width="60" height="60" as="geometry" />
        </mxCell>
        <mxCell id="gTwHU6XBFoAe-j7LGJRu-15" value="ES" style="strokeWidth=2;html=1;shape=mxgraph.flowchart.database;whiteSpace=wrap;" parent="1" vertex="1">
          <mxGeometry x="840" y="650" width="60" height="60" as="geometry" />
        </mxCell>
        <mxCell id="gTwHU6XBFoAe-j7LGJRu-16" value="业务数据存储" style="text;html=1;strokeColor=none;fillColor=none;align=center;verticalAlign=middle;whiteSpace=wrap;rounded=0;" parent="1" vertex="1">
          <mxGeometry x="660" y="620" width="90" height="20" as="geometry" />
        </mxCell>
        <mxCell id="gTwHU6XBFoAe-j7LGJRu-17" value="业务应用层" style="rounded=1;whiteSpace=wrap;html=1;" parent="1" vertex="1">
          <mxGeometry x="660" y="840" width="280" height="60" as="geometry" />
        </mxCell>
        <mxCell id="gTwHU6XBFoAe-j7LGJRu-18" value="" style="verticalLabelPosition=bottom;verticalAlign=top;html=1;strokeWidth=2;shape=mxgraph.arrows2.arrow;dy=0.6;dx=40;notch=0;rotation=90;" parent="1" vertex="1">
          <mxGeometry x="700" y="750" width="60" height="100" as="geometry" />
        </mxCell>
        <mxCell id="gTwHU6XBFoAe-j7LGJRu-19" value="" style="verticalLabelPosition=bottom;verticalAlign=top;html=1;strokeWidth=2;shape=mxgraph.arrows2.arrow;dy=0.6;dx=40;notch=0;rotation=-90;" parent="1" vertex="1">
          <mxGeometry x="820" y="750" width="60" height="100" as="geometry" />
        </mxCell>
        <mxCell id="gTwHU6XBFoAe-j7LGJRu-20" value="APP" style="shape=note;whiteSpace=wrap;html=1;backgroundOutline=1;darkOpacity=0.05;" parent="1" vertex="1">
          <mxGeometry x="660" y="960" width="80" height="100" as="geometry" />
        </mxCell>
        <mxCell id="gTwHU6XBFoAe-j7LGJRu-21" value="PDA" style="shape=note;whiteSpace=wrap;html=1;backgroundOutline=1;darkOpacity=0.05;" parent="1" vertex="1">
          <mxGeometry x="760" y="960" width="80" height="100" as="geometry" />
        </mxCell>
        <mxCell id="gTwHU6XBFoAe-j7LGJRu-22" value="PC" style="shape=note;whiteSpace=wrap;html=1;backgroundOutline=1;darkOpacity=0.05;" parent="1" vertex="1">
          <mxGeometry x="860" y="960" width="80" height="100" as="geometry" />
        </mxCell>
        <mxCell id="gTwHU6XBFoAe-j7LGJRu-26" value="restful" style="rounded=1;whiteSpace=wrap;html=1;" parent="1" vertex="1">
          <mxGeometry x="350" y="640" width="50" height="120" as="geometry" />
        </mxCell>
        <mxCell id="gTwHU6XBFoAe-j7LGJRu-27" value="三方应用" style="shape=document;whiteSpace=wrap;html=1;boundedLbl=1;" parent="1" vertex="1">
          <mxGeometry x="190" y="640" width="120" height="80" as="geometry" />
        </mxCell>
        <mxCell id="gTwHU6XBFoAe-j7LGJRu-28" value="" style="shape=ext;rounded=1;html=1;whiteSpace=wrap;dashed=1;dashPattern=1 4;" parent="1" vertex="1">
          <mxGeometry x="1040" y="410" width="320" height="380" as="geometry" />
        </mxCell>
        <mxCell id="gTwHU6XBFoAe-j7LGJRu-29" value="数据处理层" style="rounded=1;whiteSpace=wrap;html=1;" parent="1" vertex="1">
          <mxGeometry x="1060" y="500" width="280" height="80" as="geometry" />
        </mxCell>
        <mxCell id="gTwHU6XBFoAe-j7LGJRu-30" value="" style="verticalLabelPosition=bottom;verticalAlign=top;html=1;strokeWidth=2;shape=mxgraph.arrows2.arrow;dy=0.6;dx=40;notch=0;rotation=90;" parent="1" vertex="1">
          <mxGeometry x="1171" y="370" width="60" height="100" as="geometry" />
        </mxCell>
        <mxCell id="gTwHU6XBFoAe-j7LGJRu-31" value="" style="rounded=1;whiteSpace=wrap;html=1;" parent="1" vertex="1">
          <mxGeometry x="1060" y="620" width="280" height="120" as="geometry" />
        </mxCell>
        <mxCell id="gTwHU6XBFoAe-j7LGJRu-32" value="" style="verticalLabelPosition=bottom;verticalAlign=top;html=1;strokeWidth=2;shape=mxgraph.arrows2.arrow;dy=0.6;dx=40;notch=0;" parent="1" vertex="1">
          <mxGeometry x="951" y="650" width="100" height="70" as="geometry" />
        </mxCell>
        <mxCell id="gTwHU6XBFoAe-j7LGJRu-33" value="数据仓库" style="text;html=1;strokeColor=none;fillColor=none;align=center;verticalAlign=middle;whiteSpace=wrap;rounded=0;" parent="1" vertex="1">
          <mxGeometry x="1060" y="620" width="90" height="20" as="geometry" />
        </mxCell>
        <mxCell id="gTwHU6XBFoAe-j7LGJRu-34" value="MySQL" style="strokeWidth=2;html=1;shape=mxgraph.flowchart.database;whiteSpace=wrap;" parent="1" vertex="1">
          <mxGeometry x="1080" y="680" width="60" height="60" as="geometry" />
        </mxCell>
        <mxCell id="gTwHU6XBFoAe-j7LGJRu-35" value="HBase" style="strokeWidth=2;html=1;shape=mxgraph.flowchart.database;whiteSpace=wrap;" parent="1" vertex="1">
          <mxGeometry x="1170" y="680" width="60" height="60" as="geometry" />
        </mxCell>
        <mxCell id="gTwHU6XBFoAe-j7LGJRu-36" value="..." style="strokeWidth=2;html=1;shape=mxgraph.flowchart.database;whiteSpace=wrap;" parent="1" vertex="1">
          <mxGeometry x="1260" y="680" width="60" height="60" as="geometry" />
        </mxCell>
        <mxCell id="gTwHU6XBFoAe-j7LGJRu-37" value="XX地市数据集" style="rounded=0;whiteSpace=wrap;html=1;" parent="1" vertex="1">
          <mxGeometry x="1070" y="650" width="120" height="20" as="geometry" />
        </mxCell>
        <mxCell id="gTwHU6XBFoAe-j7LGJRu-38" value="XX主题数据集" style="rounded=0;whiteSpace=wrap;html=1;" parent="1" vertex="1">
          <mxGeometry x="1210" y="650" width="120" height="20" as="geometry" />
        </mxCell>
        <mxCell id="gTwHU6XBFoAe-j7LGJRu-39" value="" style="shape=ext;rounded=1;html=1;whiteSpace=wrap;dashed=1;dashPattern=1 4;" parent="1" vertex="1">
          <mxGeometry x="1040" y="850" width="320" height="230" as="geometry" />
        </mxCell>
        <mxCell id="gTwHU6XBFoAe-j7LGJRu-40" value="" style="verticalLabelPosition=bottom;verticalAlign=top;html=1;strokeWidth=2;shape=mxgraph.arrows2.arrow;dy=0.6;dx=40;notch=0;rotation=90;" parent="1" vertex="1">
          <mxGeometry x="1150" y="790" width="100" height="70" as="geometry" />
        </mxCell>
        <mxCell id="gTwHU6XBFoAe-j7LGJRu-41" value="" style="rounded=0;whiteSpace=wrap;html=1;" parent="1" vertex="1">
          <mxGeometry x="1051" y="890" width="299" height="60" as="geometry" />
        </mxCell>
        <mxCell id="gTwHU6XBFoAe-j7LGJRu-42" value="作业调度模块" style="text;html=1;strokeColor=none;fillColor=none;align=center;verticalAlign=middle;whiteSpace=wrap;rounded=0;" parent="1" vertex="1">
          <mxGeometry x="1051" y="890" width="89" height="20" as="geometry" />
        </mxCell>
        <mxCell id="gTwHU6XBFoAe-j7LGJRu-43" value="作业调度" style="rounded=1;whiteSpace=wrap;html=1;" parent="1" vertex="1">
          <mxGeometry x="1058" y="917" width="62" height="30" as="geometry" />
        </mxCell>
        <mxCell id="gTwHU6XBFoAe-j7LGJRu-44" value="调度告警" style="rounded=1;whiteSpace=wrap;html=1;" parent="1" vertex="1">
          <mxGeometry x="1130" y="917" width="60" height="30" as="geometry" />
        </mxCell>
        <mxCell id="gTwHU6XBFoAe-j7LGJRu-45" value="事件发布" style="rounded=1;whiteSpace=wrap;html=1;" parent="1" vertex="1">
          <mxGeometry x="1200" y="917" width="60" height="30" as="geometry" />
        </mxCell>
        <mxCell id="gTwHU6XBFoAe-j7LGJRu-46" value="..." style="rounded=1;whiteSpace=wrap;html=1;" parent="1" vertex="1">
          <mxGeometry x="1270" y="917" width="60" height="30" as="geometry" />
        </mxCell>
        <mxCell id="gTwHU6XBFoAe-j7LGJRu-47" value="二次数据" style="strokeWidth=2;html=1;shape=mxgraph.flowchart.direct_data;whiteSpace=wrap;" parent="1" vertex="1">
          <mxGeometry x="1060" y="980" width="80" height="40" as="geometry" />
        </mxCell>
        <mxCell id="gTwHU6XBFoAe-j7LGJRu-48" value="MQ" style="strokeWidth=2;html=1;shape=mxgraph.flowchart.direct_data;whiteSpace=wrap;" parent="1" vertex="1">
          <mxGeometry x="1160.5" y="980" width="80" height="40" as="geometry" />
        </mxCell>
        <mxCell id="gTwHU6XBFoAe-j7LGJRu-49" value="" style="shape=ext;rounded=1;html=1;whiteSpace=wrap;dashed=1;dashPattern=1 4;" parent="1" vertex="1">
          <mxGeometry x="1470" y="670" width="170" height="410" as="geometry" />
        </mxCell>
        <mxCell id="gTwHU6XBFoAe-j7LGJRu-50" value="" style="verticalLabelPosition=bottom;verticalAlign=top;html=1;strokeWidth=2;shape=mxgraph.arrows2.arrow;dy=0.6;dx=40;notch=0;" parent="1" vertex="1">
          <mxGeometry x="1367" y="910" width="100" height="70" as="geometry" />
        </mxCell>
        <mxCell id="gTwHU6XBFoAe-j7LGJRu-51" value="业务逻辑层" style="text;html=1;strokeColor=none;fillColor=none;align=center;verticalAlign=middle;whiteSpace=wrap;rounded=0;" parent="1" vertex="1">
          <mxGeometry x="1467" y="675" width="89" height="20" as="geometry" />
        </mxCell>
        <mxCell id="gTwHU6XBFoAe-j7LGJRu-52" value="数据交换模块" style="rounded=1;whiteSpace=wrap;html=1;" parent="1" vertex="1">
          <mxGeometry x="1495" y="710" width="120" height="90" as="geometry" />
        </mxCell>
        <mxCell id="gTwHU6XBFoAe-j7LGJRu-53" value="报表模块" style="rounded=1;whiteSpace=wrap;html=1;" parent="1" vertex="1">
          <mxGeometry x="1495" y="830" width="120" height="90" as="geometry" />
        </mxCell>
        <mxCell id="gTwHU6XBFoAe-j7LGJRu-55" value="业务分析等" style="rounded=1;whiteSpace=wrap;html=1;" parent="1" vertex="1">
          <mxGeometry x="1495" y="950" width="120" height="90" as="geometry" />
        </mxCell>
        <mxCell id="gTwHU6XBFoAe-j7LGJRu-56" value="省交换平台" style="rounded=1;whiteSpace=wrap;html=1;" parent="1" vertex="1">
          <mxGeometry x="1750" y="680" width="120" height="60" as="geometry" />
        </mxCell>
        <mxCell id="gTwHU6XBFoAe-j7LGJRu-57" value="" style="shape=flexArrow;endArrow=classic;startArrow=classic;html=1;width=8;endSize=7.33;" parent="1" edge="1">
          <mxGeometry width="50" height="50" relative="1" as="geometry">
            <mxPoint x="1660" y="710" as="sourcePoint" />
            <mxPoint x="1740" y="710" as="targetPoint" />
          </mxGeometry>
        </mxCell>
        <mxCell id="gTwHU6XBFoAe-j7LGJRu-58" value="Kong" style="rounded=1;whiteSpace=wrap;html=1;" parent="1" vertex="1">
          <mxGeometry x="1680" y="790" width="40" height="150" as="geometry" />
        </mxCell>
        <mxCell id="gTwHU6XBFoAe-j7LGJRu-59" value="Rest API" style="rounded=1;whiteSpace=wrap;html=1;" parent="1" vertex="1">
          <mxGeometry x="1680" y="955" width="40" height="110" as="geometry" />
        </mxCell>
        <mxCell id="gTwHU6XBFoAe-j7LGJRu-60" value="第三方应用" style="shape=note;whiteSpace=wrap;html=1;backgroundOutline=1;darkOpacity=0.05;" parent="1" vertex="1">
          <mxGeometry x="1790" y="815" width="80" height="100" as="geometry" />
        </mxCell>
        <mxCell id="gTwHU6XBFoAe-j7LGJRu-62" value="" style="shape=flexArrow;endArrow=classic;startArrow=classic;html=1;width=8;endSize=7.33;" parent="1" edge="1">
          <mxGeometry width="50" height="50" relative="1" as="geometry">
            <mxPoint x="1720" y="864.5" as="sourcePoint" />
            <mxPoint x="1790" y="865" as="targetPoint" />
          </mxGeometry>
        </mxCell>
        <mxCell id="gTwHU6XBFoAe-j7LGJRu-64" value="平台应用" style="shape=note;whiteSpace=wrap;html=1;backgroundOutline=1;darkOpacity=0.05;" parent="1" vertex="1">
          <mxGeometry x="1790" y="960" width="80" height="100" as="geometry" />
        </mxCell>
        <mxCell id="gTwHU6XBFoAe-j7LGJRu-65" value="" style="shape=flexArrow;endArrow=classic;startArrow=classic;html=1;width=8;endSize=7.33;" parent="1" edge="1">
          <mxGeometry width="50" height="50" relative="1" as="geometry">
            <mxPoint x="1720" y="1009.5" as="sourcePoint" />
            <mxPoint x="1790" y="1010" as="targetPoint" />
          </mxGeometry>
        </mxCell>
        <mxCell id="gTwHU6XBFoAe-j7LGJRu-72" value="&lt;p&gt;此模块可以采用数据中台技术、也可以采用java服务方案，具体以实际情况为主；&lt;/p&gt;&lt;p&gt;该模块对于业务应用透明，后面可以根据实际情况切换技术方案&lt;/p&gt;" style="whiteSpace=wrap;html=1;shape=partialRectangle;top=0;left=0;bottom=1;right=0;points=[[0,1],[1,1]];fillColor=none;align=left;verticalAlign=bottom;routingCenterY=0.5;snapToPoint=1;recursiveResize=0;autosize=1;treeFolding=1;treeMoving=1;newEdgeStyle={&quot;edgeStyle&quot;:&quot;entityRelationEdgeStyle&quot;,&quot;startArrow&quot;:&quot;none&quot;,&quot;endArrow&quot;:&quot;none&quot;,&quot;segment&quot;:10,&quot;curved&quot;:1};textDirection=ltr;horizontal=1;fontFamily=Verdana;" parent="1" vertex="1">
          <mxGeometry x="1460" y="320" width="470" height="110" as="geometry" />
        </mxCell>
        <mxCell id="gTwHU6XBFoAe-j7LGJRu-73" value="" style="edgeStyle=entityRelationEdgeStyle;startArrow=none;endArrow=none;segment=10;curved=1;" parent="1" target="gTwHU6XBFoAe-j7LGJRu-72" edge="1">
          <mxGeometry relative="1" as="geometry">
            <mxPoint x="1400" y="495" as="sourcePoint" />
          </mxGeometry>
        </mxCell>
        <mxCell id="gTwHU6XBFoAe-j7LGJRu-76" value="该模块主要是收集、清洗、数据标准化处理，数据封装，然后将处理后的数据丢入数据公路" style="whiteSpace=wrap;html=1;shape=partialRectangle;top=0;left=0;bottom=1;right=0;points=[[0,1],[1,1]];fillColor=none;align=left;verticalAlign=bottom;routingCenterY=0.5;snapToPoint=1;recursiveResize=0;autosize=1;treeFolding=1;treeMoving=1;newEdgeStyle={&quot;edgeStyle&quot;:&quot;entityRelationEdgeStyle&quot;,&quot;startArrow&quot;:&quot;none&quot;,&quot;endArrow&quot;:&quot;none&quot;,&quot;segment&quot;:10,&quot;curved&quot;:1};fontFamily=Verdana;" parent="1" vertex="1">
          <mxGeometry x="570" y="130" width="390" height="70" as="geometry" />
        </mxCell>
        <mxCell id="gTwHU6XBFoAe-j7LGJRu-77" value="" style="edgeStyle=entityRelationEdgeStyle;startArrow=none;endArrow=none;segment=10;curved=1;fontFamily=Verdana;" parent="1" target="gTwHU6XBFoAe-j7LGJRu-76" edge="1">
          <mxGeometry relative="1" as="geometry">
            <mxPoint x="510" y="220" as="sourcePoint" />
          </mxGeometry>
        </mxCell>
        <mxCell id="gTwHU6XBFoAe-j7LGJRu-78" value="&lt;h1&gt;方案特点&lt;/h1&gt;&lt;div style=&quot;font-size: 15px&quot;&gt;&lt;font style=&quot;font-size: 15px&quot;&gt;1、各模块各司其职，功能边界清晰&lt;/font&gt;&lt;/div&gt;&lt;div style=&quot;font-size: 15px&quot;&gt;&lt;font style=&quot;font-size: 15px&quot;&gt;2、业务模块与数据分析处理模块隔离，数据建模耦合度低&lt;/font&gt;&lt;/div&gt;&lt;div style=&quot;font-size: 15px&quot;&gt;&lt;font style=&quot;font-size: 15px&quot;&gt;3、模块功能内聚，数据处理分析模块替换大数据BI平台能力，相对简单&lt;/font&gt;&lt;/div&gt;&lt;div style=&quot;font-size: 15px&quot;&gt;&lt;font style=&quot;font-size: 15px&quot;&gt;4、目前业务数据价值密度高，对架构模型、性能、硬件开销较低。&lt;/font&gt;&lt;/div&gt;&lt;div&gt;&lt;br&gt;&lt;/div&gt;&lt;h1&gt;方案缺点&lt;/h1&gt;&lt;div style=&quot;font-size: 15px&quot;&gt;&lt;font style=&quot;font-size: 15px&quot;&gt;1、业务梳理、改造等工作量&lt;/font&gt;&lt;/div&gt;&lt;div style=&quot;font-size: 15px&quot;&gt;&lt;font style=&quot;font-size: 15px&quot;&gt;2、方案层面不能明显解决现在数据交换带来的问题，只是职责边界清晰，易扩展，更聚焦等。具体的问题还是需要特定的方案来解决&lt;span&gt;。&lt;/span&gt;&lt;/font&gt;&lt;/div&gt;&lt;div style=&quot;font-size: 15px&quot;&gt;&lt;font style=&quot;font-size: 15px&quot;&gt;3、中间件、硬件成本会略微升高。&lt;/font&gt;&lt;/div&gt;" style="text;html=1;strokeColor=none;fillColor=none;spacing=20;spacingTop=-20;whiteSpace=wrap;overflow=hidden;rounded=0;fontFamily=Verdana;align=left;spacingLeft=0;horizontal=1;" parent="1" vertex="1">
          <mxGeometry x="150" y="840" width="470" height="360" as="geometry" />
        </mxCell>
        <mxCell id="qZunodmi6Omds2NmgF2--1" value="浏览器" style="shape=umlLifeline;perimeter=lifelinePerimeter;whiteSpace=wrap;html=1;container=1;collapsible=0;recursiveResize=0;outlineConnect=0;" vertex="1" parent="1">
          <mxGeometry x="370" y="1570" width="100" height="990" as="geometry" />
        </mxCell>
        <mxCell id="qZunodmi6Omds2NmgF2--39" value="" style="html=1;points=[];perimeter=orthogonalPerimeter;" vertex="1" parent="qZunodmi6Omds2NmgF2--1">
          <mxGeometry x="50" y="110" width="10" height="80" as="geometry" />
        </mxCell>
        <mxCell id="qZunodmi6Omds2NmgF2--40" value="1、访问第三方应用" style="html=1;verticalAlign=bottom;startArrow=oval;endArrow=block;startSize=8;" edge="1" target="qZunodmi6Omds2NmgF2--39" parent="qZunodmi6Omds2NmgF2--1">
          <mxGeometry relative="1" as="geometry">
            <mxPoint x="-170" y="110" as="sourcePoint" />
          </mxGeometry>
        </mxCell>
        <mxCell id="qZunodmi6Omds2NmgF2--58" value="" style="html=1;points=[];perimeter=orthogonalPerimeter;" vertex="1" parent="qZunodmi6Omds2NmgF2--1">
          <mxGeometry x="50" y="300" width="10" height="80" as="geometry" />
        </mxCell>
        <mxCell id="qZunodmi6Omds2NmgF2--59" value="2、访问第三方应用" style="html=1;verticalAlign=bottom;startArrow=oval;endArrow=block;startSize=8;" edge="1" target="qZunodmi6Omds2NmgF2--58" parent="qZunodmi6Omds2NmgF2--1">
          <mxGeometry relative="1" as="geometry">
            <mxPoint x="-170" y="300" as="sourcePoint" />
          </mxGeometry>
        </mxCell>
        <mxCell id="qZunodmi6Omds2NmgF2--76" value="" style="html=1;points=[];perimeter=orthogonalPerimeter;" vertex="1" parent="qZunodmi6Omds2NmgF2--1">
          <mxGeometry x="50" y="590" width="10" height="60" as="geometry" />
        </mxCell>
        <mxCell id="qZunodmi6Omds2NmgF2--2" value="第三方服务" style="shape=umlLifeline;perimeter=lifelinePerimeter;whiteSpace=wrap;html=1;container=1;collapsible=0;recursiveResize=0;outlineConnect=0;" vertex="1" parent="1">
          <mxGeometry x="600" y="1570" width="100" height="950" as="geometry" />
        </mxCell>
        <mxCell id="qZunodmi6Omds2NmgF2--48" value="" style="html=1;points=[];perimeter=orthogonalPerimeter;" vertex="1" parent="qZunodmi6Omds2NmgF2--2">
          <mxGeometry x="50" y="120" width="10" height="100" as="geometry" />
        </mxCell>
        <mxCell id="qZunodmi6Omds2NmgF2--50" value="" style="html=1;points=[];perimeter=orthogonalPerimeter;" vertex="1" parent="qZunodmi6Omds2NmgF2--2">
          <mxGeometry x="55" y="150" width="10" height="40" as="geometry" />
        </mxCell>
        <mxCell id="qZunodmi6Omds2NmgF2--51" value="校验登录态" style="edgeStyle=orthogonalEdgeStyle;html=1;align=left;spacingLeft=2;endArrow=block;rounded=0;entryX=1;entryY=0;" edge="1" target="qZunodmi6Omds2NmgF2--50" parent="qZunodmi6Omds2NmgF2--2">
          <mxGeometry relative="1" as="geometry">
            <mxPoint x="60" y="130" as="sourcePoint" />
            <Array as="points">
              <mxPoint x="90" y="130" />
            </Array>
          </mxGeometry>
        </mxCell>
        <mxCell id="qZunodmi6Omds2NmgF2--60" value="" style="html=1;points=[];perimeter=orthogonalPerimeter;" vertex="1" parent="qZunodmi6Omds2NmgF2--2">
          <mxGeometry x="50" y="310" width="10" height="640" as="geometry" />
        </mxCell>
        <mxCell id="qZunodmi6Omds2NmgF2--62" value="" style="html=1;points=[];perimeter=orthogonalPerimeter;" vertex="1" parent="qZunodmi6Omds2NmgF2--2">
          <mxGeometry x="55" y="340" width="10" height="80" as="geometry" />
        </mxCell>
        <mxCell id="qZunodmi6Omds2NmgF2--63" value="校验登录态" style="edgeStyle=orthogonalEdgeStyle;html=1;align=left;spacingLeft=2;endArrow=block;rounded=0;entryX=1;entryY=0;" edge="1" target="qZunodmi6Omds2NmgF2--62" parent="qZunodmi6Omds2NmgF2--2">
          <mxGeometry relative="1" as="geometry">
            <mxPoint x="60" y="320" as="sourcePoint" />
            <Array as="points">
              <mxPoint x="90" y="320" />
            </Array>
          </mxGeometry>
        </mxCell>
        <mxCell id="qZunodmi6Omds2NmgF2--90" value="" style="html=1;points=[];perimeter=orthogonalPerimeter;" vertex="1" parent="qZunodmi6Omds2NmgF2--2">
          <mxGeometry x="55" y="890" width="10" height="40" as="geometry" />
        </mxCell>
        <mxCell id="qZunodmi6Omds2NmgF2--91" value="设置登录态" style="edgeStyle=orthogonalEdgeStyle;html=1;align=left;spacingLeft=2;endArrow=block;rounded=0;entryX=1;entryY=0;" edge="1" target="qZunodmi6Omds2NmgF2--90" parent="qZunodmi6Omds2NmgF2--2">
          <mxGeometry relative="1" as="geometry">
            <mxPoint x="60" y="870" as="sourcePoint" />
            <Array as="points">
              <mxPoint x="90" y="870" />
            </Array>
          </mxGeometry>
        </mxCell>
        <mxCell id="qZunodmi6Omds2NmgF2--3" value="认证中心" style="shape=umlLifeline;perimeter=lifelinePerimeter;whiteSpace=wrap;html=1;container=1;collapsible=0;recursiveResize=0;outlineConnect=0;" vertex="1" parent="1">
          <mxGeometry x="820" y="1570" width="100" height="930" as="geometry" />
        </mxCell>
        <mxCell id="qZunodmi6Omds2NmgF2--68" value="" style="html=1;points=[];perimeter=orthogonalPerimeter;" vertex="1" parent="qZunodmi6Omds2NmgF2--3">
          <mxGeometry x="50" y="490" width="10" height="130" as="geometry" />
        </mxCell>
        <mxCell id="qZunodmi6Omds2NmgF2--72" value="" style="html=1;points=[];perimeter=orthogonalPerimeter;" vertex="1" parent="qZunodmi6Omds2NmgF2--3">
          <mxGeometry x="55" y="520" width="10" height="40" as="geometry" />
        </mxCell>
        <mxCell id="qZunodmi6Omds2NmgF2--73" value="校验登录态" style="edgeStyle=orthogonalEdgeStyle;html=1;align=left;spacingLeft=2;endArrow=block;rounded=0;entryX=1;entryY=0;" edge="1" target="qZunodmi6Omds2NmgF2--72" parent="qZunodmi6Omds2NmgF2--3">
          <mxGeometry relative="1" as="geometry">
            <mxPoint x="60" y="500" as="sourcePoint" />
            <Array as="points">
              <mxPoint x="90" y="500" />
            </Array>
          </mxGeometry>
        </mxCell>
        <mxCell id="qZunodmi6Omds2NmgF2--82" value="" style="html=1;points=[];perimeter=orthogonalPerimeter;" vertex="1" parent="qZunodmi6Omds2NmgF2--3">
          <mxGeometry x="50" y="650" width="10" height="80" as="geometry" />
        </mxCell>
        <mxCell id="qZunodmi6Omds2NmgF2--87" value="" style="html=1;points=[];perimeter=orthogonalPerimeter;" vertex="1" parent="qZunodmi6Omds2NmgF2--3">
          <mxGeometry x="50" y="766" width="10" height="80" as="geometry" />
        </mxCell>
        <mxCell id="qZunodmi6Omds2NmgF2--38" value="Actor" style="shape=umlActor;verticalLabelPosition=bottom;verticalAlign=top;html=1;outlineConnect=0;" vertex="1" parent="1">
          <mxGeometry x="170" y="1660" width="30" height="60" as="geometry" />
        </mxCell>
        <mxCell id="qZunodmi6Omds2NmgF2--49" value="1.1、获取相关数据" style="html=1;verticalAlign=bottom;startArrow=oval;endArrow=block;startSize=8;" edge="1" target="qZunodmi6Omds2NmgF2--48" parent="1">
          <mxGeometry relative="1" as="geometry">
            <mxPoint x="430" y="1690" as="sourcePoint" />
          </mxGeometry>
        </mxCell>
        <mxCell id="qZunodmi6Omds2NmgF2--56" value="1.2、已登录，返回相应的数据" style="html=1;verticalAlign=bottom;startArrow=oval;startFill=1;endArrow=block;startSize=8;exitX=0;exitY=0.575;exitDx=0;exitDy=0;exitPerimeter=0;" edge="1" parent="1" source="qZunodmi6Omds2NmgF2--50">
          <mxGeometry width="60" relative="1" as="geometry">
            <mxPoint x="650" y="1750" as="sourcePoint" />
            <mxPoint x="430" y="1743" as="targetPoint" />
          </mxGeometry>
        </mxCell>
        <mxCell id="qZunodmi6Omds2NmgF2--57" value="Actor" style="shape=umlActor;verticalLabelPosition=bottom;verticalAlign=top;html=1;outlineConnect=0;" vertex="1" parent="1">
          <mxGeometry x="170" y="1850" width="30" height="60" as="geometry" />
        </mxCell>
        <mxCell id="qZunodmi6Omds2NmgF2--61" value="2.1、获取相关数据" style="html=1;verticalAlign=bottom;startArrow=oval;endArrow=block;startSize=8;exitX=1.1;exitY=0.15;exitDx=0;exitDy=0;exitPerimeter=0;" edge="1" target="qZunodmi6Omds2NmgF2--60" parent="1" source="qZunodmi6Omds2NmgF2--58">
          <mxGeometry relative="1" as="geometry">
            <mxPoint x="590" y="1880" as="sourcePoint" />
          </mxGeometry>
        </mxCell>
        <mxCell id="qZunodmi6Omds2NmgF2--65" value="" style="html=1;points=[];perimeter=orthogonalPerimeter;" vertex="1" parent="1">
          <mxGeometry x="420" y="1970.96" width="10" height="99.04" as="geometry" />
        </mxCell>
        <mxCell id="qZunodmi6Omds2NmgF2--66" value="2.2、未登录，重定向授权" style="html=1;verticalAlign=bottom;endArrow=block;entryX=1;entryY=0;exitX=0.1;exitY=0.75;exitDx=0;exitDy=0;exitPerimeter=0;" edge="1" target="qZunodmi6Omds2NmgF2--65" parent="1" source="qZunodmi6Omds2NmgF2--62">
          <mxGeometry relative="1" as="geometry">
            <mxPoint x="506" y="1970" as="sourcePoint" />
          </mxGeometry>
        </mxCell>
        <mxCell id="qZunodmi6Omds2NmgF2--67" value="2.3、获取授权" style="html=1;verticalAlign=bottom;endArrow=open;endSize=8;exitX=1;exitY=0.95;" edge="1" source="qZunodmi6Omds2NmgF2--65" parent="1" target="qZunodmi6Omds2NmgF2--3">
          <mxGeometry relative="1" as="geometry">
            <mxPoint x="490" y="2027.96" as="targetPoint" />
          </mxGeometry>
        </mxCell>
        <mxCell id="qZunodmi6Omds2NmgF2--74" value="" style="group" vertex="1" connectable="0" parent="1">
          <mxGeometry x="190" y="2580" width="766" height="590" as="geometry" />
        </mxCell>
        <mxCell id="qZunodmi6Omds2NmgF2--9" value="第三方服务" style="swimlane;" vertex="1" parent="qZunodmi6Omds2NmgF2--74">
          <mxGeometry x="280" width="240" height="590" as="geometry" />
        </mxCell>
        <mxCell id="qZunodmi6Omds2NmgF2--25" value="访问第三方应用" style="whiteSpace=wrap;html=1;verticalAlign=top;" vertex="1" parent="qZunodmi6Omds2NmgF2--9">
          <mxGeometry x="40" y="70" width="120" height="40" as="geometry" />
        </mxCell>
        <mxCell id="qZunodmi6Omds2NmgF2--10" value="认证服务" style="swimlane;" vertex="1" parent="qZunodmi6Omds2NmgF2--74">
          <mxGeometry x="520" width="246" height="590" as="geometry" />
        </mxCell>
        <mxCell id="qZunodmi6Omds2NmgF2--37" value="校验登录态" style="rhombus;whiteSpace=wrap;html=1;" vertex="1" parent="qZunodmi6Omds2NmgF2--10">
          <mxGeometry x="60" y="232.5" width="80" height="80" as="geometry" />
        </mxCell>
        <mxCell id="qZunodmi6Omds2NmgF2--26" value="" style="edgeStyle=orthogonalEdgeStyle;rounded=0;orthogonalLoop=1;jettySize=auto;html=1;" edge="1" parent="qZunodmi6Omds2NmgF2--74" source="qZunodmi6Omds2NmgF2--11" target="qZunodmi6Omds2NmgF2--25">
          <mxGeometry relative="1" as="geometry" />
        </mxCell>
        <mxCell id="qZunodmi6Omds2NmgF2--11" value="Actor" style="shape=umlActor;verticalLabelPosition=bottom;verticalAlign=top;html=1;outlineConnect=0;" vertex="1" parent="qZunodmi6Omds2NmgF2--74">
          <mxGeometry y="60" width="30" height="60" as="geometry" />
        </mxCell>
        <mxCell id="qZunodmi6Omds2NmgF2--35" value="" style="edgeStyle=orthogonalEdgeStyle;rounded=0;orthogonalLoop=1;jettySize=auto;html=1;entryX=0.5;entryY=0;entryDx=0;entryDy=0;" edge="1" parent="qZunodmi6Omds2NmgF2--74" source="qZunodmi6Omds2NmgF2--27" target="qZunodmi6Omds2NmgF2--37">
          <mxGeometry relative="1" as="geometry">
            <mxPoint x="600" y="205" as="targetPoint" />
          </mxGeometry>
        </mxCell>
        <mxCell id="qZunodmi6Omds2NmgF2--36" value="未登录，&lt;br&gt;2.4.2.1获取授权码" style="edgeLabel;html=1;align=center;verticalAlign=middle;resizable=0;points=[];" vertex="1" connectable="0" parent="qZunodmi6Omds2NmgF2--35">
          <mxGeometry x="-0.2909" y="3" relative="1" as="geometry">
            <mxPoint x="36" y="-14" as="offset" />
          </mxGeometry>
        </mxCell>
        <mxCell id="qZunodmi6Omds2NmgF2--27" value="&lt;br&gt;校验用&lt;br&gt;户登录态" style="rhombus;whiteSpace=wrap;html=1;verticalAlign=top;" vertex="1" parent="qZunodmi6Omds2NmgF2--74">
          <mxGeometry x="340" y="170" width="80" height="70" as="geometry" />
        </mxCell>
        <mxCell id="qZunodmi6Omds2NmgF2--28" value="" style="edgeStyle=orthogonalEdgeStyle;rounded=0;orthogonalLoop=1;jettySize=auto;html=1;" edge="1" parent="qZunodmi6Omds2NmgF2--74" source="qZunodmi6Omds2NmgF2--25" target="qZunodmi6Omds2NmgF2--27">
          <mxGeometry relative="1" as="geometry" />
        </mxCell>
        <mxCell id="qZunodmi6Omds2NmgF2--29" value="&lt;br&gt;结束" style="ellipse;whiteSpace=wrap;html=1;verticalAlign=top;" vertex="1" parent="qZunodmi6Omds2NmgF2--74">
          <mxGeometry x="110" y="177.5" width="70" height="55" as="geometry" />
        </mxCell>
        <mxCell id="qZunodmi6Omds2NmgF2--30" value="" style="edgeStyle=orthogonalEdgeStyle;rounded=0;orthogonalLoop=1;jettySize=auto;html=1;" edge="1" parent="qZunodmi6Omds2NmgF2--74" source="qZunodmi6Omds2NmgF2--27" target="qZunodmi6Omds2NmgF2--29">
          <mxGeometry relative="1" as="geometry" />
        </mxCell>
        <mxCell id="qZunodmi6Omds2NmgF2--31" value="已登录" style="edgeLabel;html=1;align=center;verticalAlign=middle;resizable=0;points=[];" vertex="1" connectable="0" parent="qZunodmi6Omds2NmgF2--30">
          <mxGeometry x="0.075" relative="1" as="geometry">
            <mxPoint as="offset" />
          </mxGeometry>
        </mxCell>
        <mxCell id="qZunodmi6Omds2NmgF2--75" value="2.3.1、未登录，重定向用户登录页" style="html=1;verticalAlign=bottom;endArrow=open;dashed=1;endSize=8;" edge="1" parent="1" target="qZunodmi6Omds2NmgF2--1">
          <mxGeometry relative="1" as="geometry">
            <mxPoint x="870" y="2110" as="sourcePoint" />
            <mxPoint x="790" y="2110" as="targetPoint" />
          </mxGeometry>
        </mxCell>
        <mxCell id="qZunodmi6Omds2NmgF2--77" value="2.3.2、已登录，重定向redirect_uri，返回授权码" style="html=1;verticalAlign=bottom;endArrow=block;entryX=1;entryY=0;" edge="1" target="qZunodmi6Omds2NmgF2--76" parent="1" source="qZunodmi6Omds2NmgF2--3">
          <mxGeometry relative="1" as="geometry">
            <mxPoint x="490" y="2160" as="sourcePoint" />
          </mxGeometry>
        </mxCell>
        <mxCell id="qZunodmi6Omds2NmgF2--83" value="2.4、授权码换取access_token" style="html=1;verticalAlign=bottom;endArrow=block;entryX=0;entryY=0;" edge="1" target="qZunodmi6Omds2NmgF2--82" parent="1">
          <mxGeometry relative="1" as="geometry">
            <mxPoint x="660" y="2220" as="sourcePoint" />
          </mxGeometry>
        </mxCell>
        <mxCell id="qZunodmi6Omds2NmgF2--84" value="return" style="html=1;verticalAlign=bottom;endArrow=open;dashed=1;endSize=8;exitX=0;exitY=0.95;" edge="1" source="qZunodmi6Omds2NmgF2--82" parent="1">
          <mxGeometry relative="1" as="geometry">
            <mxPoint x="660" y="2296" as="targetPoint" />
          </mxGeometry>
        </mxCell>
        <mxCell id="qZunodmi6Omds2NmgF2--88" value="2.5、access_token获取用户信息" style="html=1;verticalAlign=bottom;endArrow=block;entryX=0;entryY=0;" edge="1" target="qZunodmi6Omds2NmgF2--87" parent="1">
          <mxGeometry relative="1" as="geometry">
            <mxPoint x="661" y="2336" as="sourcePoint" />
          </mxGeometry>
        </mxCell>
        <mxCell id="qZunodmi6Omds2NmgF2--89" value="return" style="html=1;verticalAlign=bottom;endArrow=open;dashed=1;endSize=8;exitX=0;exitY=0.95;" edge="1" source="qZunodmi6Omds2NmgF2--87" parent="1">
          <mxGeometry relative="1" as="geometry">
            <mxPoint x="661" y="2412" as="targetPoint" />
          </mxGeometry>
        </mxCell>
        <mxCell id="qZunodmi6Omds2NmgF2--92" value="2.6、重定向用户访问页面" style="html=1;verticalAlign=bottom;endArrow=open;dashed=1;endSize=8;" edge="1" parent="1" target="qZunodmi6Omds2NmgF2--1">
          <mxGeometry relative="1" as="geometry">
            <mxPoint x="650" y="2480" as="sourcePoint" />
            <mxPoint x="570" y="2480" as="targetPoint" />
          </mxGeometry>
        </mxCell>
      </root>
    </mxGraphModel>
  </diagram>
</mxfile>
